{
    "asset" : {
        "generator" : "Khronos glTF Blender I/O v1.7.33",
        "version" : "2.0"
    },
    "scene" : 0,
    "scenes" : [
        {
            "name" : "Scene",
            "nodes" : [
                0,
                1,
                2,
                3,
                4,
                5,
                6,
                7,
                8
            ]
        }
    ],
    "nodes" : [
        {
            "mesh" : 0,
            "name" : "Landscape.002",
            "scale" : [
                20,
                19.85304832458496,
                20
            ],
            "translation" : [
                0.0016157233621925116,
                -0.0021127734798938036,
                0.004132789094001055
            ]
        },
        {
            "mesh" : 1,
            "name" : "Landscape.003",
            "scale" : [
                20,
                20,
                20
            ],
            "translation" : [
                0.04772188887000084,
                0,
                -33.93083190917969
            ]
        },
        {
            "mesh" : 2,
            "name" : "Landscape.008",
            "scale" : [
                20,
                20,
                20
            ],
            "translation" : [
                33.91123580932617,
                0,
                -33.77906799316406
            ]
        },
        {
            "mesh" : 3,
            "name" : "Landscape.009",
            "scale" : [
                20,
                20,
                20
            ],
            "translation" : [
                33.89142608642578,
                0,
                0.43904948234558105
            ]
        },
        {
            "mesh" : 4,
            "name" : "Landscape.010",
            "scale" : [
                20,
                20,
                20
            ],
            "translation" : [
                -34.13899230957031,
                0,
                -33.906341552734375
            ]
        },
        {
            "mesh" : 5,
            "name" : "Landscape.011",
            "scale" : [
                20,
                20,
                20
            ],
            "translation" : [
                0,
                0,
                35.648040771484375
            ]
        },
        {
            "mesh" : 6,
            "name" : "Landscape.012",
            "scale" : [
                20,
                20,
                20
            ],
            "translation" : [
                -34.15068054199219,
                0,
                2.619096279144287
            ]
        },
        {
            "mesh" : 7,
            "name" : "Landscape.013",
            "scale" : [
                20,
                20,
                20
            ],
            "translation" : [
                33.76526641845703,
                0,
                35.435298919677734
            ]
        },
        {
            "mesh" : 8,
            "name" : "Landscape.014",
            "scale" : [
                20,
                20,
                20
            ],
            "translation" : [
                -34.300018310546875,
                0,
                35.54393005371094
            ]
        }
    ],
    "materials" : [
        {
            "doubleSided" : true,
            "name" : "Material.001",
            "pbrMetallicRoughness" : {
                "roughnessFactor" : 0.5
            }
        },
        {
            "doubleSided" : true,
            "name" : "Material.003",
            "pbrMetallicRoughness" : {
                "roughnessFactor" : 0.5
            }
        }
    ],
    "meshes" : [
        {
            "name" : "Landscape.002",
            "primitives" : [
                {
                    "attributes" : {
                        "POSITION" : 0,
                        "NORMAL" : 1
                    },
                    "indices" : 2,
                    "material" : 0
                }
            ]
        },
        {
            "name" : "Landscape.003",
            "primitives" : [
                {
                    "attributes" : {
                        "POSITION" : 3,
                        "NORMAL" : 4
                    },
                    "indices" : 5,
                    "material" : 1
                }
            ]
        },
        {
            "name" : "Landscape.008",
            "primitives" : [
                {
                    "attributes" : {
                        "POSITION" : 6,
                        "NORMAL" : 7
                    },
                    "indices" : 8,
                    "material" : 1
                }
            ]
        },
        {
            "name" : "Landscape.009",
            "primitives" : [
                {
                    "attributes" : {
                        "POSITION" : 9,
                        "NORMAL" : 10
                    },
                    "indices" : 11,
                    "material" : 1
                }
            ]
        },
        {
            "name" : "Landscape.010",
            "primitives" : [
                {
                    "attributes" : {
                        "POSITION" : 12,
                        "NORMAL" : 13
                    },
                    "indices" : 14,
                    "material" : 1
                }
            ]
        },
        {
            "name" : "Landscape.011",
            "primitives" : [
                {
                    "attributes" : {
                        "POSITION" : 15,
                        "NORMAL" : 16
                    },
                    "indices" : 17,
                    "material" : 1
                }
            ]
        },
        {
            "name" : "Landscape.012",
            "primitives" : [
                {
                    "attributes" : {
                        "POSITION" : 18,
                        "NORMAL" : 19
                    },
                    "indices" : 20,
                    "material" : 1
                }
            ]
        },
        {
            "name" : "Landscape.013",
            "primitives" : [
                {
                    "attributes" : {
                        "POSITION" : 21,
                        "NORMAL" : 22
                    },
                    "indices" : 23,
                    "material" : 1
                }
            ]
        },
        {
            "name" : "Landscape.014",
            "primitives" : [
                {
                    "attributes" : {
                        "POSITION" : 24,
                        "NORMAL" : 25
                    },
                    "indices" : 26,
                    "material" : 1
                }
            ]
        }
    ],
    "accessors" : [
        {
            "bufferView" : 0,
            "componentType" : 5126,
            "count" : 8113,
            "max" : [
                1,
                0.2518045902252197,
                1
            ],
            "min" : [
                -1,
                -4.5909695472801104e-05,
                -1
            ],
            "type" : "VEC3"
        },
        {
            "bufferView" : 1,
            "componentType" : 5126,
            "count" : 8113,
            "type" : "VEC3"
        },
        {
            "bufferView" : 2,
            "componentType" : 5123,
            "count" : 8553,
            "type" : "SCALAR"
        },
        {
            "bufferView" : 3,
            "componentType" : 5126,
            "count" : 9013,
            "max" : [
                1,
                0.19231383502483368,
                1
            ],
            "min" : [
                -1,
                -0.02010525017976761,
                -1
            ],
            "type" : "VEC3"
        },
        {
            "bufferView" : 4,
            "componentType" : 5126,
            "count" : 9013,
            "type" : "VEC3"
        },
        {
            "bufferView" : 5,
            "componentType" : 5123,
            "count" : 9213,
            "type" : "SCALAR"
        },
        {
            "bufferView" : 6,
            "componentType" : 5126,
            "count" : 9004,
            "max" : [
                0.9999989867210388,
                0.1849975883960724,
                1.0000040531158447
            ],
            "min" : [
                -1.0000003576278687,
                -0.02249496802687645,
                -0.9999995827674866
            ],
            "type" : "VEC3"
        },
        {
            "bufferView" : 7,
            "componentType" : 5126,
            "count" : 9004,
            "type" : "VEC3"
        },
        {
            "bufferView" : 8,
            "componentType" : 5123,
            "count" : 9210,
            "type" : "SCALAR"
        },
        {
            "bufferView" : 9,
            "componentType" : 5126,
            "count" : 8996,
            "max" : [
                1,
                0.24797984957695007,
                1
            ],
            "min" : [
                -1,
                -0.004243769682943821,
                -1.0000005960464478
            ],
            "type" : "VEC3"
        },
        {
            "bufferView" : 10,
            "componentType" : 5126,
            "count" : 8996,
            "type" : "VEC3"
        },
        {
            "bufferView" : 11,
            "componentType" : 5123,
            "count" : 9210,
            "type" : "SCALAR"
        },
        {
            "bufferView" : 12,
            "componentType" : 5126,
            "count" : 9015,
            "max" : [
                1,
                0.2719120979309082,
                1
            ],
            "min" : [
                -1,
                -0.0003436681581661105,
                -0.9999998211860657
            ],
            "type" : "VEC3"
        },
        {
            "bufferView" : 13,
            "componentType" : 5126,
            "count" : 9015,
            "type" : "VEC3"
        },
        {
            "bufferView" : 14,
            "componentType" : 5123,
            "count" : 9207,
            "type" : "SCALAR"
        },
        {
            "bufferView" : 15,
            "componentType" : 5126,
            "count" : 8965,
            "max" : [
                1,
                0.2687585949897766,
                1.0000042915344238
            ],
            "min" : [
                -1.0000004768371582,
                -0.00013032398419454694,
                -1.000000238418579
            ],
            "type" : "VEC3"
        },
        {
            "bufferView" : 16,
            "componentType" : 5126,
            "count" : 8965,
            "type" : "VEC3"
        },
        {
            "bufferView" : 17,
            "componentType" : 5123,
            "count" : 9207,
            "type" : "SCALAR"
        },
        {
            "bufferView" : 18,
            "componentType" : 5126,
            "count" : 8966,
            "max" : [
                1,
                0.23341554403305054,
                1.0000120401382446
            ],
            "min" : [
                -1.000001072883606,
                -0.0364154614508152,
                -1
            ],
            "type" : "VEC3"
        },
        {
            "bufferView" : 19,
            "componentType" : 5126,
            "count" : 8966,
            "type" : "VEC3"
        },
        {
            "bufferView" : 20,
            "componentType" : 5123,
            "count" : 9210,
            "type" : "SCALAR"
        },
        {
            "bufferView" : 21,
            "componentType" : 5126,
            "count" : 8996,
            "max" : [
                1.0000014305114746,
                0.27284979820251465,
                0.9999997615814209
            ],
            "min" : [
                -1.0000009536743164,
                -8.610387885710225e-05,
                -1.0000008344650269
            ],
            "type" : "VEC3"
        },
        {
            "bufferView" : 22,
            "componentType" : 5126,
            "count" : 8996,
            "type" : "VEC3"
        },
        {
            "bufferView" : 23,
            "componentType" : 5123,
            "count" : 9210,
            "type" : "SCALAR"
        },
        {
            "bufferView" : 24,
            "componentType" : 5126,
            "count" : 9008,
            "max" : [
                1.0000054836273193,
                0.2436237931251526,
                1
            ],
            "min" : [
                -1.0000075101852417,
                -0.002466239733621478,
                -1.0000007152557373
            ],
            "type" : "VEC3"
        },
        {
            "bufferView" : 25,
            "componentType" : 5126,
            "count" : 9008,
            "type" : "VEC3"
        },
        {
            "bufferView" : 26,
            "componentType" : 5123,
            "count" : 9210,
            "type" : "SCALAR"
        }
    ],
    "bufferViews" : [
        {
            "buffer" : 0,
            "byteLength" : 97356,
            "byteOffset" : 0
        },
        {
            "buffer" : 0,
            "byteLength" : 97356,
            "byteOffset" : 97356
        },
        {
            "buffer" : 0,
            "byteLength" : 17106,
            "byteOffset" : 194712
        },
        {
            "buffer" : 0,
            "byteLength" : 108156,
            "byteOffset" : 211820
        },
        {
            "buffer" : 0,
            "byteLength" : 108156,
            "byteOffset" : 319976
        },
        {
            "buffer" : 0,
            "byteLength" : 18426,
            "byteOffset" : 428132
        },
        {
            "buffer" : 0,
            "byteLength" : 108048,
            "byteOffset" : 446560
        },
        {
            "buffer" : 0,
            "byteLength" : 108048,
            "byteOffset" : 554608
        },
        {
            "buffer" : 0,
            "byteLength" : 18420,
            "byteOffset" : 662656
        },
        {
            "buffer" : 0,
            "byteLength" : 107952,
            "byteOffset" : 681076
        },
        {
            "buffer" : 0,
            "byteLength" : 107952,
            "byteOffset" : 789028
        },
        {
            "buffer" : 0,
            "byteLength" : 18420,
            "byteOffset" : 896980
        },
        {
            "buffer" : 0,
            "byteLength" : 108180,
            "byteOffset" : 915400
        },
        {
            "buffer" : 0,
            "byteLength" : 108180,
            "byteOffset" : 1023580
        },
        {
            "buffer" : 0,
            "byteLength" : 18414,
            "byteOffset" : 1131760
        },
        {
            "buffer" : 0,
            "byteLength" : 107580,
            "byteOffset" : 1150176
        },
        {
            "buffer" : 0,
            "byteLength" : 107580,
            "byteOffset" : 1257756
        },
        {
            "buffer" : 0,
            "byteLength" : 18414,
            "byteOffset" : 1365336
        },
        {
            "buffer" : 0,
            "byteLength" : 107592,
            "byteOffset" : 1383752
        },
        {
            "buffer" : 0,
            "byteLength" : 107592,
            "byteOffset" : 1491344
        },
        {
            "buffer" : 0,
            "byteLength" : 18420,
            "byteOffset" : 1598936
        },
        {
            "buffer" : 0,
            "byteLength" : 107952,
            "byteOffset" : 1617356
        },
        {
            "buffer" : 0,
            "byteLength" : 107952,
            "byteOffset" : 1725308
        },
        {
            "buffer" : 0,
            "byteLength" : 18420,
            "byteOffset" : 1833260
        },
        {
            "buffer" : 0,
            "byteLength" : 108096,
            "byteOffset" : 1851680
        },
        {
            "buffer" : 0,
            "byteLength" : 108096,
            "byteOffset" : 1959776
        },
        {
            "buffer" : 0,
            "byteLength" : 18420,
            "byteOffset" : 2067872
        }
    ],
    "buffers" : [
        {
            "byteLength" : 2086292,
            "uri" : "data:application/octet-stream;base64,"
        }
    ]
}
